:version 1.10
:name ASF
:units
  mass 1
  length 1
  angle deg
:documentation
  ASF file generated by Kaydara
:root
  axis xyz
  order  tx ty tz rx ry rz
  position 0 0 0
  orientation 0 0 0
:bonedata
  begin
    id 1
    name SpineDummy
    direction 0.999998 -0.00179978 1.38929e-006
    length 3.60008
    axis 0 0 0 xyz
  end
  begin
    id 2
    name Spine
    direction 0.964365 0.262802 0.0305839
    length 8.13928
    axis 1.33928 -1.75354 15.2838 xyz
    dof rx ry rz
  end
  begin
    id 3
    name Spine1
    direction 0.811168 0.572065 0.12144
    length 7.14954
    axis 2.2224 -6.9761 35.2157 xyz
    dof rx ry rz
  end
  begin
    id 4
    name Neck
    direction 0 0 0
    length 0
    axis 2.2224 -6.9761 35.2157 xyz
    dof rx ry rz
  end
  begin
    id 5
    name HeadDummy
    direction 0.810939 0.572387 0.121455
    length 3.55534
    axis 2.2224 -6.9761 35.2157 xyz
  end
  begin
    id 6
    name Head
    direction 0.998226 -0.000232542 0.0595419
    length 7.35666
    axis -3.03688 -3.41352 -0.0133467 xyz
    dof rx ry rz
  end
  begin
    id 7
    name R_ClavicleDummy
    direction 0.531669 -0.194489 -0.824319
    length 2.49392
    axis 2.2224 -6.9761 35.2157 xyz
  end
  begin
    id 8
    name R_Clavicle
    direction -0.155119 0.0480802 -0.986725
    length 4.485
    axis -54.2764 80.6538 162.779 xyz
    dof rx ry rz
  end
  begin
    id 9
    name R_UpperArm
    direction -0.955567 0.200068 -0.216484
    length 10.1122
    axis -72.9943 12.5026 168.175 xyz
    dof rx ry rz
  end
  begin
    id 10
    name R_Forearm
    direction -0.61433 0.385743 0.688332
    length 9.39148
    axis -117.015 -43.4982 147.875 xyz
    dof rx ry rz
  end
  begin
    id 11
    name R_Hand
    direction -0.699429 0.0170333 0.714499
    length 3.66324
    axis -45.0303 -36.7097 175.478 xyz
    dof rx ry rz
  end
  begin
    id 12
    name L_ClavicleDummy
    direction 0.40287 -0.36502 0.839319
    length 2.49392
    axis 2.2224 -6.9761 35.2157 xyz
  end
  begin
    id 13
    name L_Clavicle
    direction -0.231271 -0.0726419 0.970174
    length 4.485
    axis 18.4357 -75.9711 -162.563 xyz
    dof rx ry rz
  end
  begin
    id 14
    name L_UpperArm
    direction -0.917494 0.144359 0.370629
    length 10.1122
    axis 56.0417 -21.7544 171.058 xyz
    dof rx ry rz
  end
  begin
    id 15
    name L_Forearm
    direction -0.496786 0.615074 -0.612281
    length 9.39148
    axis 89.8094 37.7546 128.927 xyz
    dof rx ry rz
  end
  begin
    id 16
    name L_Hand
    direction -0.409932 0.64962 -0.640274
    length 3.66324
    axis -0.424369 32.133 128.52 xyz
    dof rx ry rz
  end
  begin
    id 17
    name L_ThighDummy
    direction -1.84081e-006 1.87549e-006 1
    length 3.13049
    axis 0 0 0 xyz
  end
  begin
    id 18
    name L_Thigh
    direction -0.947739 0.307978 0.083308
    length 17.9961
    axis 173.219 -4.77873 161.998 xyz
    dof rx ry rz
  end
  begin
    id 19
    name L_Calf
    direction -0.728814 -0.684427 0.0197583
    length 13.3367
    axis 167.331 -1.13214 -136.799 xyz
    dof rx ry rz
  end
  begin
    id 20
    name L_Foot
    direction -0.9028 0.418719 0.0981191
    length 5.8674
    axis 163.436 11.5135 -155.37 xyz
    dof rx ry rz
  end
  begin
    id 21
    name L_Toe0
    direction -0.35341 0.886259 0.299411
    length 4.75286
    axis 169.316 -17.4222 111.74 xyz
    dof rx ry rz
  end
  begin
    id 22
    name R_ThighDummy
    direction 9.32778e-007 -8.82053e-007 -1
    length 3.13049
    axis 0 0 0 xyz
  end
  begin
    id 23
    name R_Thigh
    direction -0.925064 0.37528 -0.0585023
    length 17.9961
    axis -178.698 3.35385 157.919 xyz
    dof rx ry rz
  end
  begin
    id 24
    name R_Calf
    direction -0.68969 -0.718776 -0.0876886
    length 13.3367
    axis -160.504 5.03065 -133.817 xyz
    dof rx ry rz
  end
  begin
    id 25
    name R_Foot
    direction -0.857405 0.418858 -0.299022
    length 5.8674
    axis -161.328 4.38911 -154.413 xyz
    dof rx ry rz
  end
  begin
    id 26
    name R_Toe0
    direction -0.100745 0.952789 -0.286433
    length 4.75286
    axis 171.683 16.6445 96.0359 xyz
    dof rx ry rz
  end
:hierarchy
  begin
    root SpineDummy L_ThighDummy R_ThighDummy
    SpineDummy Spine
    Spine Spine1
    Spine1 Neck
    Neck HeadDummy R_ClavicleDummy L_ClavicleDummy
    HeadDummy Head
    R_ClavicleDummy R_Clavicle
    R_Clavicle R_UpperArm
    R_UpperArm R_Forearm
    R_Forearm R_Hand
    L_ClavicleDummy L_Clavicle
    L_Clavicle L_UpperArm
    L_UpperArm L_Forearm
    L_Forearm L_Hand
    L_ThighDummy L_Thigh
    L_Thigh L_Calf
    L_Calf L_Foot
    L_Foot L_Toe0
    R_ThighDummy R_Thigh
    R_Thigh R_Calf
    R_Calf R_Foot
    R_Foot R_Toe0
  end

:SAMPLES-PER-SECOND 30
:FULLY-SPECIFIED
:DEGREES
43
root  -4.99869 29.2231 -4.95302 -78.7247 -15.4967 87.8115
Spine  -7.24106 -10.2136 -2.32906
Spine1  -6.51725 30.7771 -1.97227
Neck  3.97569e-016 0 -2.38542e-015
Head  3.86506 -1.72467 21.9918
R_Clavicle  0.408996 -18.2567 1.78114
R_UpperArm  43.548 -1.13066 37.3495
R_Forearm  4.3302 -43.0513 30.8436
R_Hand  -1.68303 11.5338 -23.568
L_Clavicle  -0.448396 15.8488 0.308256
L_UpperArm  13.3315 0.730052 -10.5373
L_Forearm  -4.589 18.468 22.6719
L_Hand  -0.382446 3.06497 -4.9186
L_Thigh  7.18537 5.37517 7.72647
L_Calf  -3.32851 1.44756 -10.9201
L_Foot  3.67476 9.96703 4.2428
L_Toe0  -0.29385 0.0320403 -5.68208
R_Thigh  4.76648 11.6832 -7.19967
R_Calf  2.9153 0.583211 2.02745
R_Foot  -4.68525 -5.86596 16.8369
R_Toe0  -1.785 -0.272725 -17.3215
44
root  -5.05747 29.3835 -5.26045 -83.2408 -15.1774 87.9424
Spine  -6.97822 -10.0733 -2.97322
Spine1  -6.22846 28.6282 -1.52007
Neck  3.97569e-016 0 -2.38542e-015
Head  5.85929 -1.42225 21.6761
R_Clavicle  0.408873 -18.0278 1.79798
R_UpperArm  43.6414 -1.81576 35.1779
R_Forearm  10.5648 -39.4535 27.084
R_Hand  -1.59776 11.1263 -23.1014
L_Clavicle  -0.431832 15.2851 0.0242391
L_UpperArm  14.7096 -0.379088 -11.4047
L_Forearm  -3.71753 19.8613 24.6434
L_Hand  -0.278492 3.14769 -3.5042
L_Thigh  7.67748 4.54025 8.61616
L_Calf  -0.777785 0.159101 -1.43782
L_Foot  2.60671 10.5609 0.0885959
L_Toe0  0.593527 0.0337264 -6.1864
R_Thigh  2.97583 11.5682 -7.82861
R_Calf  0.415448 0.800698 2.69205
R_Foot  -5.50864 -7.52215 17.2235
R_Toe0  -1.78567 -0.272737 -17.3219
45
root  -5.22335 29.9451 -5.48571 -88.4233 -14.3214 87.5716
Spine  -6.80958 -9.42217 -4.2733
Spine1  -6.21134 24.9413 -1.3813
Neck  3.97569e-016 0 -2.38542e-015
Head  8.61822 -1.58799 21.0622
R_Clavicle  0.401655 -17.6395 1.65647
R_UpperArm  36.457 -2.83754 32.8782
R_Forearm  17.4225 -34.0501 22.6626
R_Hand  -1.32698 10.1101 -21.3835
L_Clavicle  -0.407636 14.6329 -0.403948
L_UpperArm  14.6474 -0.307648 -10.2133
L_Forearm  -1.35069 21.4259 26.9381
L_Hand  -0.147923 3.36652 -1.75317
L_Thigh  8.75972 2.73877 7.90479
L_Calf  2.33375 -1.04231 7.39417
L_Foot  0.795683 10.6776 -6.23748
L_Toe0  0.505156 0.034446 -6.1361
R_Thigh  0.0183684 10.7157 -8.87624
R_Calf  -1.54468 1.80531 5.79613
R_Foot  -5.88401 -9.03148 15.8347
R_Toe0  -1.82831 -0.272723 -17.3462
46
root  -5.49788 30.8621 -5.65928 -94.8288 -13.276 87.1639
Spine  -6.52833 -8.09559 -5.46521
Spine1  -6.2799 20.5018 -2.12289
Neck  3.97569e-016 0 -2.38542e-015
Head  12.1565 -2.48964 20.8204
R_Clavicle  0.391613 -16.8472 1.52746
R_UpperArm  21.0917 -3.71132 29.9267
R_Forearm  23.3912 -26.8444 20.7176
R_Hand  -1.12856 9.2952 -19.9816
L_Clavicle  -0.389153 14.175 -0.617483
L_UpperArm  13.1421 1.19152 -6.78092
L_Forearm  0.0320934 23.0439 29.4153
L_Hand  -0.0798833 3.31542 -0.890391
L_Thigh  9.85301 0.642255 6.10221
L_Calf  4.01585 -1.94765 14.1618
L_Foot  -0.542562 9.80145 -10.415
L_Toe0  0.505156 0.034446 -6.1361
R_Thigh  -4.78186 9.9022 -10.5034
R_Calf  -3.16962 3.47838 11.0229
R_Foot  -6.11765 -11.3695 12.5626
R_Toe0  -1.47362 -0.270154 -17.1862
47
root  -5.87391 31.9691 -5.80942 -102.509 -11.8931 86.7717
Spine  -5.86113 -6.18249 -6.53928
Spine1  -5.9948 15.699 -3.60584
Neck  3.97569e-016 0 -2.38542e-015
Head  15.8711 -3.85316 20.8486
R_Clavicle  0.386967 -16.0653 1.52414
R_UpperArm  10.142 -4.40399 26.6869
R_Forearm  22.5846 -21.0587 18.9657
R_Hand  -0.981843 8.82962 -18.8803
L_Clavicle  -0.386515 14.099 -0.621515
L_UpperArm  11.6256 3.38306 -1.72506
L_Forearm  -1.67916 24.5638 31.8753
L_Hand  -0.0797235 2.91954 -0.94629
L_Thigh  8.3204 -1.21763 4.36091
L_Calf  3.9389 -2.5458 18.7132
L_Foot  -1.08376 9.18287 -12.0584
L_Toe0  0.505156 0.034446 -6.1361
R_Thigh  -11.4264 9.16747 -11.4537
R_Calf  -6.39035 5.33928 16.9929
R_Foot  -4.93214 -12.8399 5.2487
R_Toe0  0.538895 -0.304601 -15.8325
48
root  -6.28025 33.0027 -5.95027 -110.677 -10.3319 86.0322
Spine  -4.87938 -4.5163 -7.55784
Spine1  -5.21825 11.1232 -5.25794
Neck  3.97569e-016 0 -2.38542e-015
Head  19.2148 -4.76931 20.5504
R_Clavicle  0.383122 -15.6079 1.50373
R_UpperArm  7.65375 -4.97546 23.8149
R_Forearm  17.0261 -17.4176 15.0835
R_Hand  -0.717736 8.04741 -16.7547
L_Clavicle  -0.390708 14.2974 -0.793434
L_UpperArm  10.5203 5.46383 4.29047
L_Forearm  -5.06408 25.8614 33.8935
L_Hand  -0.0750263 2.8925 -0.885889
L_Thigh  3.77906 -3.04498 3.4225
L_Calf  4.39979 -2.92089 21.6365
L_Foot  -1.57133 8.27773 -13.4458
L_Toe0  0.505156 0.034446 -6.1361
R_Thigh  -16.7491 8.21117 -11.0374
R_Calf  -8.28503 7.0336 22.62
R_Foot  -2.61049 -12.4934 -4.32744
R_Toe0  1.67179 -0.367908 -11.8708
49
root  -6.63194 33.7356 -6.1117 -118.745 -9.36956 85.3431
Spine  -3.8357 -3.60814 -7.94504
Spine1  -4.19018 7.54783 -6.79643
Neck  3.97569e-016 0 -2.38542e-015
Head  22.4457 -4.50323 19.6213
R_Clavicle  0.365301 -14.9149 1.29656
R_UpperArm  6.55488 -5.48871 21.0409
R_Forearm  13.556 -13.5138 11.4907
R_Hand  -0.414223 6.67787 -13.7444
L_Clavicle  -0.392447 14.4815 -1.15712
L_UpperArm  8.58818 7.36692 10.7116
L_Forearm  -6.63055 27.1123 34.9758
L_Hand  -0.00730309 3.70275 0.0697784
L_Thigh  -0.688895 -4.84925 2.89301
L_Calf  6.55761 -3.11606 23.2163
L_Foot  -2.38479 4.74252 -14.9864
L_Toe0  0.505156 0.034446 -6.1361
R_Thigh  -14.8575 6.72483 -9.70334
R_Calf  -5.92003 8.07144 26.1695
R_Foot  -0.575353 -11.4272 -12.5413
R_Toe0  -0.0693275 -0.114162 -4.25734
50
root  -6.90767 34.0203 -6.32696 -126.842 -9.37239 85.5108
Spine  -2.76776 -2.98436 -7.33069
Spine1  -3.06173 4.81877 -8.13444
Neck  3.97569e-016 0 -2.38542e-015
Head  25.9654 -3.10485 18.4109
R_Clavicle  0.329845 -13.4739 0.991375
R_UpperArm  6.68426 -5.88229 17.5708
R_Forearm  12.0239 -9.67694 8.11696
R_Hand  -0.22253 5.59404 -11.3342
L_Clavicle  -0.382632 14.3345 -1.42859
L_UpperArm  6.0376 9.39391 16.9134
L_Forearm  -5.50453 28.3734 35.4776
L_Hand  0.112852 4.91036 1.39767
L_Thigh  -3.71788 -6.21076 2.24536
L_Calf  8.90453 -3.10536 23.1844
L_Foot  -3.17784 -0.62772 -15.8232
L_Toe0  0.325917 0.0570176 -6.29639
R_Thigh  -4.73139 4.8596 -8.37179
R_Calf  0.304425 7.91126 25.5389
R_Foot  0.0877436 -11.5823 -15.8897
R_Toe0  0.472371 -0.129731 2.02642
51
root  -7.14452 33.7661 -6.61343 -135.419 -9.87884 86.5618
Spine  -1.40672 -1.82931 -6.28853
Spine1  -1.6446 1.80917 -9.18838
Neck  3.97569e-016 0 -2.38542e-015
Head  29.4402 -1.2738 17.8501
R_Clavicle  0.292944 -11.8601 0.779084
R_UpperArm  7.51645 -5.82351 13.5154
R_Forearm  11.7404 -5.92326 4.91598
R_Hand  -0.113522 5.50119 -10.2692
L_Clavicle  -0.359948 13.9092 -1.68845
L_UpperArm  3.75521 11.5699 22.7206
L_Forearm  -3.01498 29.7614 35.9299
L_Hand  0.196095 5.70124 2.16608
L_Thigh  -7.02793 -6.92661 1.64104
L_Calf  9.32421 -2.84635 21.2318
L_Foot  -3.45416 -3.21918 -15.6579
L_Toe0  2.12408 -0.164702 -4.78057
R_Thigh  4.60436 3.16166 -7.34159
R_Calf  5.71445 6.02713 19.044
R_Foot  -0.177037 -10.637 -13.8014
R_Toe0  2.46785 -0.793957 4.1606
52
root  -7.34912 33.0624 -6.96836 -144.73 -10.2715 88.3021
Spine  0.483459 0.13377 -5.21552
Spine1  0.193842 -1.64915 -10.1031
Neck  3.97569e-016 0 -2.38542e-015
Head  32.5917 0.0564901 18.4523
R_Clavicle  0.275908 -10.8652 0.730398
R_UpperArm  8.40953 -4.78953 9.5387
R_Forearm  11.6256 -2.24096 1.83295
R_Hand  -0.0482851 6.0927 -10.1872
L_Clavicle  -0.346201 13.7903 -2.10705
L_UpperArm  2.25825 13.7388 28.6613
L_Forearm  -0.801814 30.9567 36.2976
L_Hand  0.216078 5.75334 2.36452
L_Thigh  -10.4666 -7.20851 0.994043
L_Calf  6.04328 -2.39878 17.8816
L_Foot  -2.34115 0.540789 -12.7048
L_Toe0  8.2473 -0.984535 1.49874
R_Thigh  7.13242 2.30826 -6.7401
R_Calf  5.39486 2.38166 7.36111
R_Foot  -0.608732 -7.66088 -8.77527
R_Toe0  2.60645 -0.791487 -2.98224
